<svg xmlns="http://www.w3.org/2000/svg" width="1280" height="300" viewBox="0 0 1280 300" role="img" aria-label="LifeLine. Smart city disaster response and evacuation simulator">
<defs><linearGradient id="bg" x1="0" y1="0" x2="1" y2="1"><stop offset="0" stop-color="#0d1117"/><stop offset="0.55" stop-color="#161b22"/><stop offset="1" stop-color="#1f2733"/></linearGradient><linearGradient id="accent" x1="0" y1="0" x2="1" y2="0"><stop offset="0" stop-color="#60a5fa"/><stop offset="1" stop-color="#c084fc"/></linearGradient><linearGradient id="bar" x1="0" y1="0" x2="0" y2="1"><stop offset="0" stop-color="#60a5fa"/><stop offset="1" stop-color="#60a5fa" stop-opacity="0.5"/></linearGradient></defs>
<rect width="1280" height="300" rx="18" fill="url(#bg)"/>
<rect x="1" y="1" width="1278" height="298" rx="17" fill="none" stroke="#ffffff" stroke-opacity="0.08"/>
<text x="64" y="112" font-family='"Segoe UI", "Helvetica Neue", Helvetica, Arial, sans-serif' font-size="50" font-weight="700" fill="#ffffff" textLength="216" lengthAdjust="spacingAndGlyphs">LifeLine</text>
<text x="64" y="166" font-family='"Segoe UI", "Helvetica Neue", Helvetica, Arial, sans-serif' font-size="28" font-weight="600" fill="url(#accent)" textLength="697" lengthAdjust="spacingAndGlyphs">Smart city disaster response and evacuation simulator</text>
<rect x="64" y="208" width="239" height="38" rx="19" fill="#ffffff" fill-opacity="0.07" stroke="#ffffff" stroke-opacity="0.18"/>
<text x="184" y="232" text-anchor="middle" font-family='"Segoe UI", "Helvetica Neue", Helvetica, Arial, sans-serif' font-size="15" font-weight="600" fill="#e5e7eb" textLength="199" lengthAdjust="spacingAndGlyphs">From-scratch algorithms</text>
<rect x="317" y="208" width="206" height="38" rx="19" fill="#ffffff" fill-opacity="0.07" stroke="#ffffff" stroke-opacity="0.18"/>
<text x="420" y="232" text-anchor="middle" font-family='"Segoe UI", "Helvetica Neue", Helvetica, Arial, sans-serif' font-size="15" font-weight="600" fill="#e5e7eb" textLength="166" lengthAdjust="spacingAndGlyphs">Max-flow evacuation</text>
<rect x="537" y="208" width="180" height="38" rx="19" fill="#ffffff" fill-opacity="0.07" stroke="#ffffff" stroke-opacity="0.18"/>
<text x="627" y="232" text-anchor="middle" font-family='"Segoe UI", "Helvetica Neue", Helvetica, Arial, sans-serif' font-size="15" font-weight="600" fill="#e5e7eb" textLength="140" lengthAdjust="spacingAndGlyphs">One C++17 binary</text>
<line x1="871.9" y1="185.8" x2="823.4" y2="188.9" stroke="#60a5fa" stroke-opacity="0.28" stroke-width="1.2"/><line x1="822.1" y1="144.4" x2="846.4" y2="171.5" stroke="#60a5fa" stroke-opacity="0.28" stroke-width="1.2"/><line x1="1201.4" y1="125.0" x2="1228.7" y2="111.0" stroke="#60a5fa" stroke-opacity="0.28" stroke-width="1.2"/><line x1="1210.2" y1="72.2" x2="1187.6" y2="104.2" stroke="#60a5fa" stroke-opacity="0.28" stroke-width="1.2"/><line x1="1089.4" y1="101.9" x2="1088.8" y2="115.6" stroke="#60a5fa" stroke-opacity="0.28" stroke-width="1.2"/><line x1="1153.4" y1="205.2" x2="1179.4" y2="185.6" stroke="#60a5fa" stroke-opacity="0.28" stroke-width="1.2"/><line x1="1060.8" y1="231.7" x2="1111.3" y2="213.3" stroke="#60a5fa" stroke-opacity="0.28" stroke-width="1.2"/><line x1="1209.0" y1="169.0" x2="1179.4" y2="185.6" stroke="#60a5fa" stroke-opacity="0.28" stroke-width="1.2"/><line x1="1060.8" y1="231.7" x2="989.9" y2="232.9" stroke="#60a5fa" stroke-opacity="0.28" stroke-width="1.2"/><line x1="1209.2" y1="214.5" x2="1234.3" y2="194.2" stroke="#60a5fa" stroke-opacity="0.28" stroke-width="1.2"/><line x1="1111.3" y1="213.3" x2="1153.4" y2="205.2" stroke="#60a5fa" stroke-opacity="0.28" stroke-width="1.2"/><line x1="815.7" y1="159.0" x2="823.4" y2="188.9" stroke="#60a5fa" stroke-opacity="0.28" stroke-width="1.2"/><line x1="846.4" y1="171.5" x2="823.4" y2="188.9" stroke="#60a5fa" stroke-opacity="0.28" stroke-width="1.2"/><line x1="1187.6" y1="104.2" x2="1198.0" y2="100.6" stroke="#60a5fa" stroke-opacity="0.28" stroke-width="1.2"/><line x1="1187.6" y1="104.2" x2="1201.4" y2="125.0" stroke="#60a5fa" stroke-opacity="0.28" stroke-width="1.2"/><line x1="1062.1" y1="73.5" x2="1088.8" y2="115.6" stroke="#60a5fa" stroke-opacity="0.28" stroke-width="1.2"/><line x1="983.0" y1="172.8" x2="989.9" y2="232.9" stroke="#60a5fa" stroke-opacity="0.28" stroke-width="1.2"/><line x1="1210.2" y1="72.2" x2="1198.0" y2="100.6" stroke="#60a5fa" stroke-opacity="0.28" stroke-width="1.2"/><line x1="1089.4" y1="101.9" x2="1062.1" y2="73.5" stroke="#60a5fa" stroke-opacity="0.28" stroke-width="1.2"/><line x1="1089.4" y1="101.9" x2="1028.3" y2="85.7" stroke="#60a5fa" stroke-opacity="0.28" stroke-width="1.2"/><line x1="1142.2" y1="96.1" x2="1149.1" y2="149.8" stroke="#60a5fa" stroke-opacity="0.28" stroke-width="1.2"/><line x1="1149.7" y1="221.6" x2="1111.3" y2="213.3" stroke="#60a5fa" stroke-opacity="0.28" stroke-width="1.2"/><line x1="1111.3" y1="213.3" x2="1052.2" y2="178.2" stroke="#60a5fa" stroke-opacity="0.28" stroke-width="1.2"/><line x1="1209.2" y1="214.5" x2="1179.4" y2="185.6" stroke="#60a5fa" stroke-opacity="0.28" stroke-width="1.2"/><line x1="1149.1" y1="149.8" x2="1179.4" y2="185.6" stroke="#60a5fa" stroke-opacity="0.28" stroke-width="1.2"/><line x1="871.9" y1="185.8" x2="846.4" y2="171.5" stroke="#60a5fa" stroke-opacity="0.28" stroke-width="1.2"/><line x1="1062.1" y1="73.5" x2="1028.3" y2="85.7" stroke="#60a5fa" stroke-opacity="0.28" stroke-width="1.2"/><line x1="1209.0" y1="169.0" x2="1234.3" y2="194.2" stroke="#60a5fa" stroke-opacity="0.28" stroke-width="1.2"/><line x1="1198.0" y1="100.6" x2="1228.7" y2="111.0" stroke="#60a5fa" stroke-opacity="0.28" stroke-width="1.2"/><line x1="1142.2" y1="96.1" x2="1089.4" y2="101.9" stroke="#60a5fa" stroke-opacity="0.28" stroke-width="1.2"/><line x1="1060.8" y1="231.7" x2="1052.2" y2="178.2" stroke="#60a5fa" stroke-opacity="0.28" stroke-width="1.2"/><line x1="1198.0" y1="100.6" x2="1201.4" y2="125.0" stroke="#60a5fa" stroke-opacity="0.28" stroke-width="1.2"/><line x1="951.3" y1="151.8" x2="983.0" y2="172.8" stroke="#60a5fa" stroke-opacity="0.28" stroke-width="1.2"/><line x1="815.7" y1="159.0" x2="822.1" y2="144.4" stroke="#60a5fa" stroke-opacity="0.28" stroke-width="1.2"/><line x1="1149.7" y1="221.6" x2="1153.4" y2="205.2" stroke="#60a5fa" stroke-opacity="0.28" stroke-width="1.2"/><line x1="951.3" y1="151.8" x2="871.9" y2="185.8" stroke="#60a5fa" stroke-opacity="0.28" stroke-width="1.2"/><line x1="1187.6" y1="104.2" x2="1142.2" y2="96.1" stroke="#60a5fa" stroke-opacity="0.28" stroke-width="1.2"/><line x1="822.1" y1="144.4" x2="951.3" y2="151.8" stroke="#c084fc" stroke-width="2.4" stroke-dasharray="5 5" stroke-opacity="0.9"/><line x1="951.3" y1="151.8" x2="989.9" y2="232.9" stroke="#c084fc" stroke-width="2.4" stroke-dasharray="5 5" stroke-opacity="0.9"/><line x1="989.9" y1="232.9" x2="1149.1" y2="149.8" stroke="#c084fc" stroke-width="2.4" stroke-dasharray="5 5" stroke-opacity="0.9"/><circle cx="1149.7" cy="221.6" r="4" fill="#60a5fa" fill-opacity="0.85"/><circle cx="951.3" cy="151.8" r="9" fill="#c084fc" fill-opacity="0.18"/><circle cx="951.3" cy="151.8" r="5.5" fill="#c084fc"/><circle cx="1209.2" cy="214.5" r="4" fill="#60a5fa" fill-opacity="0.85"/><circle cx="1209.0" cy="169.0" r="4" fill="#60a5fa" fill-opacity="0.85"/><circle cx="1210.2" cy="72.2" r="4" fill="#60a5fa" fill-opacity="0.85"/><circle cx="1060.8" cy="231.7" r="4" fill="#60a5fa" fill-opacity="0.85"/><circle cx="1187.6" cy="104.2" r="4" fill="#60a5fa" fill-opacity="0.85"/><circle cx="983.0" cy="172.8" r="4" fill="#60a5fa" fill-opacity="0.85"/><circle cx="1234.3" cy="194.2" r="4" fill="#60a5fa" fill-opacity="0.85"/><circle cx="1142.2" cy="96.1" r="4" fill="#60a5fa" fill-opacity="0.85"/><circle cx="1111.3" cy="213.3" r="4" fill="#60a5fa" fill-opacity="0.85"/><circle cx="815.7" cy="159.0" r="4" fill="#60a5fa" fill-opacity="0.85"/><circle cx="1089.4" cy="101.9" r="4" fill="#60a5fa" fill-opacity="0.85"/><circle cx="1149.1" cy="149.8" r="9" fill="#c084fc" fill-opacity="0.18"/><circle cx="1149.1" cy="149.8" r="5.5" fill="#c084fc"/><circle cx="1198.0" cy="100.6" r="4" fill="#60a5fa" fill-opacity="0.85"/><circle cx="822.1" cy="144.4" r="9" fill="#c084fc" fill-opacity="0.18"/><circle cx="822.1" cy="144.4" r="5.5" fill="#c084fc"/><circle cx="871.9" cy="185.8" r="4" fill="#60a5fa" fill-opacity="0.85"/><circle cx="1052.2" cy="178.2" r="4" fill="#60a5fa" fill-opacity="0.85"/><circle cx="1062.1" cy="73.5" r="4" fill="#60a5fa" fill-opacity="0.85"/><circle cx="1088.8" cy="115.6" r="4" fill="#60a5fa" fill-opacity="0.85"/><circle cx="1201.4" cy="125.0" r="4" fill="#60a5fa" fill-opacity="0.85"/><circle cx="1153.4" cy="205.2" r="4" fill="#60a5fa" fill-opacity="0.85"/><circle cx="989.9" cy="232.9" r="9" fill="#c084fc" fill-opacity="0.18"/><circle cx="989.9" cy="232.9" r="5.5" fill="#c084fc"/><circle cx="1228.7" cy="111.0" r="4" fill="#60a5fa" fill-opacity="0.85"/><circle cx="846.4" cy="171.5" r="4" fill="#60a5fa" fill-opacity="0.85"/><circle cx="1179.4" cy="185.6" r="4" fill="#60a5fa" fill-opacity="0.85"/><circle cx="823.4" cy="188.9" r="4" fill="#60a5fa" fill-opacity="0.85"/><circle cx="1028.3" cy="85.7" r="4" fill="#60a5fa" fill-opacity="0.85"/><text x="1020" y="262" text-anchor="middle" font-family='"Segoe UI", "Helvetica Neue", Helvetica, Arial, sans-serif' font-size="13" font-weight="600" fill="#c084fc">40 locations · 83 roads</text>
</svg>